# xmcd CD database file
#
# Track frame offsets:
#	150
#	19905
#	39447
#	59327
#
# Disc length: 1048 seconds
#
# Revision: 0
# Processed by: cddbd v1.5.1PL0 Copyright (c) Steve Scherf et al.
# Submitted via: CDex 1.51
#
DISCID=2c041604
DTITLE=DEEN - 君がいない夏
DYEAR=1997
DGENRE=J-POP
TTITLE0=君がいない夏
TTITLE1=love me
TTITLE2=君がいない夏 (original karaoke)
TTITLE3=love me (original karaoke)
EXTD=YEAR: 1997
EXTT0=
EXTT1=
EXTT2=
EXTT3=
PLAYORDER=
